<mxfile host="65bd71144e">
    <diagram id="tLFudKx_XNXjCjO-lnHd" name="Page-1">
        <mxGraphModel dx="1624" dy="750" grid="1" gridSize="10" guides="1" tooltips="1" connect="1" arrows="1" fold="1" page="1" pageScale="1" pageWidth="1100" pageHeight="850" math="0" shadow="0">
            <root>
                <mxCell id="0"/>
                <mxCell id="1" parent="0"/>
                <mxCell id="2" value="&lt;h3 style=&quot;border-color: rgb(0, 0, 0); color: rgb(240, 240, 240); font-family: Helvetica; font-style: normal; font-variant-ligatures: normal; font-variant-caps: normal; letter-spacing: normal; orphans: 2; text-align: center; text-indent: 0px; text-transform: none; widows: 2; word-spacing: 0px; -webkit-text-stroke-width: 0px; background-color: rgb(42, 37, 47); text-decoration-thickness: initial; text-decoration-style: initial; text-decoration-color: initial;&quot;&gt;U jednom prenosnom sistemu poruke se sastoje od simbola zadatih tabelom gde je data i frekvencija njihovog pojavljivanja. Kodirati simbole tako da prosečna&amp;nbsp; dužina prenesne poruke bude minimalna i izračunati ovu dužinu. Obrazložiti postupak.&lt;/h3&gt;" style="text;whiteSpace=wrap;html=1;" parent="1" vertex="1">
                    <mxGeometry x="100" width="860" height="90" as="geometry"/>
                </mxCell>
                <mxCell id="14" value="" style="childLayout=tableLayout;recursiveResize=0;shadow=0;fillColor=none;movable=0;resizable=0;rotatable=0;deletable=0;editable=0;connectable=0;" vertex="1" parent="1">
                    <mxGeometry x="10" y="80" width="230" height="93" as="geometry"/>
                </mxCell>
                <mxCell id="15" value="" style="shape=tableRow;horizontal=0;startSize=0;swimlaneHead=0;swimlaneBody=0;top=0;left=0;bottom=0;right=0;dropTarget=0;collapsible=0;recursiveResize=0;expand=0;fontStyle=0;fillColor=none;strokeColor=inherit;movable=0;resizable=0;rotatable=0;deletable=0;editable=0;connectable=0;" vertex="1" parent="14">
                    <mxGeometry width="230" height="47" as="geometry"/>
                </mxCell>
                <mxCell id="16" value="&lt;b&gt;Letter&lt;/b&gt;" style="connectable=0;recursiveResize=0;strokeColor=inherit;fillColor=none;align=center;whiteSpace=wrap;html=1;movable=0;resizable=0;rotatable=0;deletable=0;editable=0;" vertex="1" parent="15">
                    <mxGeometry width="77" height="47" as="geometry">
                        <mxRectangle width="77" height="47" as="alternateBounds"/>
                    </mxGeometry>
                </mxCell>
                <mxCell id="17" value="&lt;b&gt;C&lt;/b&gt;" style="connectable=0;recursiveResize=0;strokeColor=inherit;fillColor=none;align=center;whiteSpace=wrap;html=1;movable=0;resizable=0;rotatable=0;deletable=0;editable=0;" vertex="1" parent="15">
                    <mxGeometry x="77" width="76" height="47" as="geometry">
                        <mxRectangle width="76" height="47" as="alternateBounds"/>
                    </mxGeometry>
                </mxCell>
                <mxCell id="18" value="D" style="connectable=0;recursiveResize=0;strokeColor=inherit;fillColor=none;align=center;whiteSpace=wrap;html=1;movable=0;resizable=0;rotatable=0;deletable=0;editable=0;" vertex="1" parent="15">
                    <mxGeometry x="153" width="77" height="47" as="geometry">
                        <mxRectangle width="77" height="47" as="alternateBounds"/>
                    </mxGeometry>
                </mxCell>
                <mxCell id="19" style="shape=tableRow;horizontal=0;startSize=0;swimlaneHead=0;swimlaneBody=0;top=0;left=0;bottom=0;right=0;dropTarget=0;collapsible=0;recursiveResize=0;expand=0;fontStyle=0;fillColor=none;strokeColor=inherit;movable=0;resizable=0;rotatable=0;deletable=0;editable=0;connectable=0;" vertex="1" parent="14">
                    <mxGeometry y="47" width="230" height="46" as="geometry"/>
                </mxCell>
                <mxCell id="20" value="&lt;b&gt;Frequency&lt;/b&gt;" style="connectable=0;recursiveResize=0;strokeColor=inherit;fillColor=none;align=center;whiteSpace=wrap;html=1;movable=0;resizable=0;rotatable=0;deletable=0;editable=0;" vertex="1" parent="19">
                    <mxGeometry width="77" height="46" as="geometry">
                        <mxRectangle width="77" height="46" as="alternateBounds"/>
                    </mxGeometry>
                </mxCell>
                <mxCell id="21" value="32" style="connectable=0;recursiveResize=0;strokeColor=inherit;fillColor=none;align=center;whiteSpace=wrap;html=1;movable=0;resizable=0;rotatable=0;deletable=0;editable=0;" vertex="1" parent="19">
                    <mxGeometry x="77" width="76" height="46" as="geometry">
                        <mxRectangle width="76" height="46" as="alternateBounds"/>
                    </mxGeometry>
                </mxCell>
                <mxCell id="22" value="42" style="connectable=0;recursiveResize=0;strokeColor=inherit;fillColor=none;align=center;whiteSpace=wrap;html=1;movable=0;resizable=0;rotatable=0;deletable=0;editable=0;" vertex="1" parent="19">
                    <mxGeometry x="153" width="77" height="46" as="geometry">
                        <mxRectangle width="77" height="46" as="alternateBounds"/>
                    </mxGeometry>
                </mxCell>
                <mxCell id="65" value="" style="edgeStyle=none;html=1;movable=0;resizable=0;rotatable=0;deletable=0;editable=0;connectable=0;" edge="1" parent="1" source="46" target="56">
                    <mxGeometry relative="1" as="geometry"/>
                </mxCell>
                <mxCell id="46" value="" style="childLayout=tableLayout;recursiveResize=0;shadow=0;fillColor=none;movable=0;resizable=0;rotatable=0;deletable=0;editable=0;connectable=0;" vertex="1" parent="1">
                    <mxGeometry x="240" y="80" width="230" height="93" as="geometry"/>
                </mxCell>
                <mxCell id="47" value="" style="shape=tableRow;horizontal=0;startSize=0;swimlaneHead=0;swimlaneBody=0;top=0;left=0;bottom=0;right=0;dropTarget=0;collapsible=0;recursiveResize=0;expand=0;fontStyle=0;fillColor=none;strokeColor=inherit;movable=0;resizable=0;rotatable=0;deletable=0;editable=0;connectable=0;" vertex="1" parent="46">
                    <mxGeometry width="230" height="48" as="geometry"/>
                </mxCell>
                <mxCell id="48" value="&lt;b&gt;E&lt;/b&gt;" style="connectable=0;recursiveResize=0;strokeColor=inherit;fillColor=none;align=center;whiteSpace=wrap;html=1;movable=0;resizable=0;rotatable=0;deletable=0;editable=0;" vertex="1" parent="47">
                    <mxGeometry width="77" height="48" as="geometry">
                        <mxRectangle width="77" height="48" as="alternateBounds"/>
                    </mxGeometry>
                </mxCell>
                <mxCell id="49" value="&lt;b&gt;K&lt;/b&gt;" style="connectable=0;recursiveResize=0;strokeColor=inherit;fillColor=none;align=center;whiteSpace=wrap;html=1;movable=0;resizable=0;rotatable=0;deletable=0;editable=0;" vertex="1" parent="47">
                    <mxGeometry x="77" width="76" height="48" as="geometry">
                        <mxRectangle width="76" height="48" as="alternateBounds"/>
                    </mxGeometry>
                </mxCell>
                <mxCell id="50" value="L" style="connectable=0;recursiveResize=0;strokeColor=inherit;fillColor=none;align=center;whiteSpace=wrap;html=1;movable=0;resizable=0;rotatable=0;deletable=0;editable=0;" vertex="1" parent="47">
                    <mxGeometry x="153" width="77" height="48" as="geometry">
                        <mxRectangle width="77" height="48" as="alternateBounds"/>
                    </mxGeometry>
                </mxCell>
                <mxCell id="51" style="shape=tableRow;horizontal=0;startSize=0;swimlaneHead=0;swimlaneBody=0;top=0;left=0;bottom=0;right=0;dropTarget=0;collapsible=0;recursiveResize=0;expand=0;fontStyle=0;fillColor=none;strokeColor=inherit;movable=0;resizable=0;rotatable=0;deletable=0;editable=0;connectable=0;" vertex="1" parent="46">
                    <mxGeometry y="48" width="230" height="45" as="geometry"/>
                </mxCell>
                <mxCell id="52" value="&lt;b&gt;120&lt;/b&gt;" style="connectable=0;recursiveResize=0;strokeColor=inherit;fillColor=none;align=center;whiteSpace=wrap;html=1;movable=0;resizable=0;rotatable=0;deletable=0;editable=0;" vertex="1" parent="51">
                    <mxGeometry width="77" height="45" as="geometry">
                        <mxRectangle width="77" height="45" as="alternateBounds"/>
                    </mxGeometry>
                </mxCell>
                <mxCell id="53" value="7" style="connectable=0;recursiveResize=0;strokeColor=inherit;fillColor=none;align=center;whiteSpace=wrap;html=1;movable=0;resizable=0;rotatable=0;deletable=0;editable=0;" vertex="1" parent="51">
                    <mxGeometry x="77" width="76" height="45" as="geometry">
                        <mxRectangle width="76" height="45" as="alternateBounds"/>
                    </mxGeometry>
                </mxCell>
                <mxCell id="54" value="42" style="connectable=0;recursiveResize=0;strokeColor=inherit;fillColor=none;align=center;whiteSpace=wrap;html=1;movable=0;resizable=0;rotatable=0;deletable=0;editable=0;" vertex="1" parent="51">
                    <mxGeometry x="153" width="77" height="45" as="geometry">
                        <mxRectangle width="77" height="45" as="alternateBounds"/>
                    </mxGeometry>
                </mxCell>
                <mxCell id="56" value="" style="childLayout=tableLayout;recursiveResize=0;shadow=0;fillColor=none;movable=0;resizable=0;rotatable=0;deletable=0;editable=0;connectable=0;" vertex="1" parent="1">
                    <mxGeometry x="470" y="80" width="230" height="93" as="geometry"/>
                </mxCell>
                <mxCell id="57" value="" style="shape=tableRow;horizontal=0;startSize=0;swimlaneHead=0;swimlaneBody=0;top=0;left=0;bottom=0;right=0;dropTarget=0;collapsible=0;recursiveResize=0;expand=0;fontStyle=0;fillColor=none;strokeColor=inherit;movable=0;resizable=0;rotatable=0;deletable=0;editable=0;connectable=0;" vertex="1" parent="56">
                    <mxGeometry width="230" height="48" as="geometry"/>
                </mxCell>
                <mxCell id="58" value="&lt;b&gt;M&lt;/b&gt;" style="connectable=0;recursiveResize=0;strokeColor=inherit;fillColor=none;align=center;whiteSpace=wrap;html=1;movable=0;resizable=0;rotatable=0;deletable=0;editable=0;" vertex="1" parent="57">
                    <mxGeometry width="77" height="48" as="geometry">
                        <mxRectangle width="77" height="48" as="alternateBounds"/>
                    </mxGeometry>
                </mxCell>
                <mxCell id="59" value="&lt;b&gt;U&lt;/b&gt;" style="connectable=0;recursiveResize=0;strokeColor=inherit;fillColor=none;align=center;whiteSpace=wrap;html=1;movable=0;resizable=0;rotatable=0;deletable=0;editable=0;" vertex="1" parent="57">
                    <mxGeometry x="77" width="76" height="48" as="geometry">
                        <mxRectangle width="76" height="48" as="alternateBounds"/>
                    </mxGeometry>
                </mxCell>
                <mxCell id="60" value="Z" style="connectable=0;recursiveResize=0;strokeColor=inherit;fillColor=none;align=center;whiteSpace=wrap;html=1;movable=0;resizable=0;rotatable=0;deletable=0;editable=0;" vertex="1" parent="57">
                    <mxGeometry x="153" width="77" height="48" as="geometry">
                        <mxRectangle width="77" height="48" as="alternateBounds"/>
                    </mxGeometry>
                </mxCell>
                <mxCell id="61" style="shape=tableRow;horizontal=0;startSize=0;swimlaneHead=0;swimlaneBody=0;top=0;left=0;bottom=0;right=0;dropTarget=0;collapsible=0;recursiveResize=0;expand=0;fontStyle=0;fillColor=none;strokeColor=inherit;movable=0;resizable=0;rotatable=0;deletable=0;editable=0;connectable=0;" vertex="1" parent="56">
                    <mxGeometry y="48" width="230" height="45" as="geometry"/>
                </mxCell>
                <mxCell id="62" value="&lt;b&gt;24&lt;/b&gt;" style="connectable=0;recursiveResize=0;strokeColor=inherit;fillColor=none;align=center;whiteSpace=wrap;html=1;movable=0;resizable=0;rotatable=0;deletable=0;editable=0;" vertex="1" parent="61">
                    <mxGeometry width="77" height="45" as="geometry">
                        <mxRectangle width="77" height="45" as="alternateBounds"/>
                    </mxGeometry>
                </mxCell>
                <mxCell id="63" value="37" style="connectable=0;recursiveResize=0;strokeColor=inherit;fillColor=none;align=center;whiteSpace=wrap;html=1;movable=0;resizable=0;rotatable=0;deletable=0;editable=0;" vertex="1" parent="61">
                    <mxGeometry x="77" width="76" height="45" as="geometry">
                        <mxRectangle width="76" height="45" as="alternateBounds"/>
                    </mxGeometry>
                </mxCell>
                <mxCell id="64" value="2" style="connectable=0;recursiveResize=0;strokeColor=inherit;fillColor=none;align=center;whiteSpace=wrap;html=1;movable=0;resizable=0;rotatable=0;deletable=0;editable=0;" vertex="1" parent="61">
                    <mxGeometry x="153" width="77" height="45" as="geometry">
                        <mxRectangle width="77" height="45" as="alternateBounds"/>
                    </mxGeometry>
                </mxCell>
            </root>
        </mxGraphModel>
    </diagram>
</mxfile>